Coordinates
version=1
nRows=9
nColumns=24
inDegrees=yes

Units are S.I. units (second, meters, Newtons, ...)
Angles are in degrees.

endheader
time	pelvis_tilt	pelvis_list	pelvis_rotation	pelvis_tx	pelvis_ty	pelvis_tz	hip_flexion_r	hip_adduction_r	hip_rotation_r	knee_angle_r	ankle_angle_r	subtalar_angle_r	mtp_angle_r	hip_flexion_l	hip_adduction_l	hip_rotation_l	knee_angle_l	ankle_angle_l	subtalar_angle_l	mtp_angle_l	lumbar_extension	lumbar_bending	lumbar_rotation
      1.41633333	      0.95917012	     -4.71391991	     -9.54387978	      0.95018380	      0.99415510	      0.29605107	    -18.32420621	      8.07291831	     12.74391904	    -13.39123387	     18.36036769	     -0.75343873	      3.63744326	     29.64991610	     -7.30720972	     -4.09353032	     -2.75209464	     10.67556654	    -10.37686770	     -3.33009861	     -2.07401307	      2.22210331	      8.77136344
      1.42050000	      0.93424063	     -4.58451850	     -9.69970396	      0.95597103	      0.99349654	      0.29589880	    -18.50588040	      7.82944481	     12.74066056	    -13.60947144	     18.26026409	     -0.65687263	      3.69587107	     29.59160922	     -7.18877957	     -3.84547811	     -3.29675110	     10.90807024	    -10.85659840	     -3.26126530	     -1.94870107	      2.06639370	      8.98678601
      1.42466667	      0.91011014	     -4.45486917	     -9.83486848	      0.96183765	      0.99282547	      0.29571611	    -18.69612859	      7.59071253	     12.73196114	    -13.81352051	     18.12195564	     -0.62108161	      3.71443306	     29.54950897	     -7.06283657	     -3.66759511	     -3.89033734	     11.25149876	    -11.10421626	     -3.23468324	     -1.82035837	      1.90282732	      9.03927376
      1.42883333	      0.88061848	     -4.32227418	     -9.96628937	      0.96775263	      0.99215373	      0.29551239	    -18.87368686	      7.34731384	     12.70153981	    -14.02914188	     17.97155660	     -0.55330211	      3.74495322	     29.48952100	     -6.92630159	     -3.47563126	     -4.44431235	     11.54429565	    -11.38660894	     -3.20293963	     -1.67338307	      1.74018981	      9.14342765
      1.43300000	      0.84816814	     -4.18841365	    -10.08730416	      0.97371409	      0.99147654	      0.29528216	    -19.04122561	      7.10317553	     12.64399197	    -14.25721086	     17.81893806	     -0.45011044	      3.79995987	     29.42096270	     -6.77901774	     -3.27090927	     -4.97928189	     11.78094197	    -11.70005514	     -3.15935084	     -1.51181549	      1.57357018	      9.29422273
      1.43716667	      0.80821245	     -4.03937365	    -10.22655228	      0.97970976	      0.99080288	      0.29502913	    -19.17498122	      6.83204344	     12.55370405	    -14.53265431	     17.70998631	     -0.23083539	      3.99850940	     29.33310753	     -6.61422918	     -3.04066491	     -5.46423226	     11.86341474	    -12.20607167	     -3.04061060	     -1.36600966	      1.42005186	      9.56058619
      1.44133333	      0.77695541	     -3.89665313	    -10.34301365	      0.98577971	      0.99013812	      0.29477457	    -19.33751453	      6.57782593	     12.50118426	    -14.77121146	     17.49800802	     -0.17489182	      4.05218163	     29.24243939	     -6.45339284	     -2.91709792	     -5.95793971	     12.07287289	    -12.39741091	     -3.00041173	     -1.19793247	      1.24445569	      9.59318049
      1.44550000	      0.74352205	     -3.74187114	    -10.45587937	      0.99191159	      0.98948087	      0.29450091	    -19.48248579	      6.30813710	     12.40238126	    -15.03448476	     17.28441804	     -0.05608290	      4.14027331	     29.14004414	     -6.27482380	     -2.79845121	     -6.42190894	     12.20782656	    -12.62855879	     -2.94428512	     -1.01124694	      1.05726089	      9.69686290
      1.44966667	      0.70670315	     -3.58255102	    -10.56937053	      0.99807361	      0.98882309	      0.29420689	    -19.61171464	      6.03157159	     12.29344159	    -15.31847730	     17.06048403	      0.08037906	      4.23688608	     29.03666918	     -6.09132995	     -2.71769255	     -6.86063505	     12.27781953	    -12.85877207	     -2.88509826	     -0.83165106	      0.87765442	      9.80312746
